# xmcd
#
# Track frame offsets:
# 150
# 11062
# 28880
# 46339
# 74340
# 91807
# 113149
# 126156
# 140238
# 165063
# 174274
# 196158
# 212013
# 230934
# 246633
# 266102
# 284962
#
# Disc length: 4127 seconds
#
#
# Revision: 0
# Processed by: cddbd v1.5.2PL0 Copyright (c) Steve Scherf et al.
# Submitted via: FreeRIP 2.951 
#
DISCID=06101d11
DTITLE=Allende, Isabel - Im Reich des goldenen Drachen
DYEAR=2003
DGENRE=Hörbuch
TTITLE0=064 Ein Jaguar als Totemtier 04
TTITLE1=065 Ein Jaguar als Totemtier 05
TTITLE2=066 Ein Jaguar als Totemtier 06
TTITLE3=067 Ein Jaguar als Totemtier 07
TTITLE4=068 Gedanken als Medizin 01
TTITLE5=069 Gedanken als Medizin 02
TTITLE6=070 Gedanken als Medizin 03
TTITLE7=071 Gedanken als Medizin 04
TTITLE8=072 Gedanken als Medizin 05
TTITLE9=073 Gedanken als Medizin 06
TTITLE10=074 Gedanken als Medizin 07
TTITLE11=075 Gedanken als Medizin 08
TTITLE12=076 Der goldene Drache 01
TTITLE13=077 Der goldene Drache 02
TTITLE14=078 Der goldene Drache 03
TTITLE15=079 Der goldene Drache 04
TTITLE16=080 Der goldene Drache 05
EXTD=gelesen von Marc Oliver Schulze
EXTT0=
EXTT1=
EXTT2=
EXTT3=
EXTT4=
EXTT5=
EXTT6=
EXTT7=
EXTT8=
EXTT9=
EXTT10=
EXTT11=
EXTT12=
EXTT13=
EXTT14=
EXTT15=
EXTT16=
PLAYORDER=
